<svg id="visual" viewBox="0 0 900 600" width="900" height="600" xmlns="http://www.w3.org/2000/svg" xmlns:xlink="http://www.w3.org/1999/xlink" version="1.1"><rect x="0" y="0" width="900" height="600" fill="#181A20"></rect><path d="M0 446L21.5 443C43 440 86 434 128.8 432.3C171.7 430.7 214.3 433.3 257.2 420.8C300 408.3 343 380.7 385.8 379.5C428.7 378.3 471.3 403.7 514.2 411.8C557 420 600 411 642.8 410.3C685.7 409.7 728.3 417.3 771.2 410.5C814 403.7 857 382.3 878.5 371.7L900 361L900 601L878.5 601C857 601 814 601 771.2 601C728.3 601 685.7 601 642.8 601C600 601 557 601 514.2 601C471.3 601 428.7 601 385.8 601C343 601 300 601 257.2 601C214.3 601 171.7 601 128.8 601C86 601 43 601 21.5 601L0 601Z" fill="#e0b034"></path><path d="M0 435L21.5 434.5C43 434 86 433 128.8 439.8C171.7 446.7 214.3 461.3 257.2 461.2C300 461 343 446 385.8 434.8C428.7 423.7 471.3 416.3 514.2 416.3C557 416.3 600 423.7 642.8 434.3C685.7 445 728.3 459 771.2 463.7C814 468.3 857 463.7 878.5 461.3L900 459L900 601L878.5 601C857 601 814 601 771.2 601C728.3 601 685.7 601 642.8 601C600 601 557 601 514.2 601C471.3 601 428.7 601 385.8 601C343 601 300 601 257.2 601C214.3 601 171.7 601 128.8 601C86 601 43 601 21.5 601L0 601Z" fill="#e5a62b"></path><path d="M0 461L21.5 461.5C43 462 86 463 128.8 460.5C171.7 458 214.3 452 257.2 448C300 444 343 442 385.8 450.5C428.7 459 471.3 478 514.2 478.7C557 479.3 600 461.7 642.8 453C685.7 444.3 728.3 444.7 771.2 449.8C814 455 857 465 878.5 470L900 475L900 601L878.5 601C857 601 814 601 771.2 601C728.3 601 685.7 601 642.8 601C600 601 557 601 514.2 601C471.3 601 428.7 601 385.8 601C343 601 300 601 257.2 601C214.3 601 171.7 601 128.8 601C86 601 43 601 21.5 601L0 601Z" fill="#e99b24"></path><path d="M0 522L21.5 515.3C43 508.7 86 495.3 128.8 490.8C171.7 486.3 214.3 490.7 257.2 498.8C300 507 343 519 385.8 518.3C428.7 517.7 471.3 504.3 514.2 498C557 491.7 600 492.3 642.8 499C685.7 505.7 728.3 518.3 771.2 519.2C814 520 857 509 878.5 503.5L900 498L900 601L878.5 601C857 601 814 601 771.2 601C728.3 601 685.7 601 642.8 601C600 601 557 601 514.2 601C471.3 601 428.7 601 385.8 601C343 601 300 601 257.2 601C214.3 601 171.7 601 128.8 601C86 601 43 601 21.5 601L0 601Z" fill="#ed9020"></path><path d="M0 559L21.5 560.5C43 562 86 565 128.8 564.3C171.7 563.7 214.3 559.3 257.2 554C300 548.7 343 542.3 385.8 542.5C428.7 542.7 471.3 549.3 514.2 552.7C557 556 600 556 642.8 551C685.7 546 728.3 536 771.2 537.8C814 539.7 857 553.3 878.5 560.2L900 567L900 601L878.5 601C857 601 814 601 771.2 601C728.3 601 685.7 601 642.8 601C600 601 557 601 514.2 601C471.3 601 428.7 601 385.8 601C343 601 300 601 257.2 601C214.3 601 171.7 601 128.8 601C86 601 43 601 21.5 601L0 601Z" fill="#f1841f"></path></svg>